{"title":"[DaddyIssues] LeluLove Riding Cowgirl Then Creampie","uid":15759288,"size":284055544,"categoryP":"porn","categoryS":"hd___movies","magnet":"?xt=urn:btih:b20745d038a2d84dd1bec3ad3a81a57908e85223&amp;dn=%5BDaddyIssues%5D+LeluLove+Riding+Cowgirl+Then+Creampie&amp;tr=udp%3A%2F%2Ftracker.leechers-paradise.org%3A6969&amp;tr=udp%3A%2F%2Fzer0day.ch%3A1337&amp;tr=udp%3A%2F%2Fopen.demonii.com%3A1337&amp;tr=udp%3A%2F%2Ftracker.coppersurfer.tk%3A6969&amp;tr=udp%3A%2F%2Fexodus.desync.com%3A6969","seeders":1,"leechers":0,"uploader":null,"files":1,"time":1473093216,"description":"Video\r\nID                                       : 1\r\nFormat                                   : AVC\r\nFormat/Info                              : Advanced Video Codec\r\nFormat profile                           :   \r\nFormat settings, CABAC                   : Yes\r\nFormat settings, ReFrames                : 3 frames\r\nCodec ID                                 : avc1\r\nCodec ID/Info                            : Advanced Video Coding\r\nDuration                                 : 14 min 4 s\r\nSource duration                          : 14 min 4 s\r\nBit rate                                 : 2 497 kb/s\r\nWidth                                    : 1 280 pixels\r\nHeight                                   : 720 pixels\r\nDisplay aspect ratio                     : 16:9\r\nFrame rate mode                          : Variable\r\nFrame rate                               : 30.000 FPS\r\nMinimum frame rate                       : 30.000 FPS\r\nMaximum frame rate                       : 30.030 FPS\r\nStandard                                 : NTSC\r\nColor space                              : YUV\r\nChroma subsampling                       : 4:2:0\r\nBit depth                                : 8 bits\r\nScan type                                : Progressive\r\nBits/(Pixel*Frame)                       : 0.090\r\nStream size                              : 251 MiB (93%)\r\nSource stream size                       : 251 MiB (93%)\r\nLanguage                                 : English\r\nEncoded date                             : UTC 2016-06-14 02:13:51\r\nTagged date                              : UTC 2016-06-14 02:13:51\r\nColor range                              : Limited\r\nmdhd_Duration                            : 844467\r\n\r\nAudio\r\nID                                       : 2\r\nFormat                                   : AAC\r\nFormat/Info                              : Advanced Audio Codec\r\nFormat profile                           : LC\r\nCodec ID                                 : 40\r\nDuration                                 : 14 min 4 s\r\nSource duration                          : 14 min 4 s\r\nBit rate mode                            : Variable\r\nBit rate                                 : 192 kb/s\r\nMaximum bit rate                         : 283 kb/s\r\nChannel(s)                               : 2 channels\r\nChannel positions                        : Front: L R\r\nSampling rate                            : 48.0 kHz\r\nFrame rate                               : 46.875 FPS (1024 spf)\r\nCompression mode                         : Lossy\r\nStream size                              : 19.1 MiB (7%)\r\nSource stream size                       : 19.1 MiB (7%)\r\nLanguage                                 : English\r\nEncoded date                             : UTC 2016-06-14 02:13:51\r\nTagged date                              : UTC 2016-06-14 02:13:51\r\nmdhd_Duration                            : 844523","torrent":{"xt":"urn:btih:b20745d038a2d84dd1bec3ad3a81a57908e85223","amp;dn":"%5BDaddyIssues%5D+LeluLove+Riding+Cowgirl+Then+Creampie","amp;tr":["udp%3A%2F%2Ftracker.leechers-paradise.org%3A6969","udp%3A%2F%2Fzer0day.ch%3A1337","udp%3A%2F%2Fopen.demonii.com%3A1337","udp%3A%2F%2Ftracker.coppersurfer.tk%3A6969","udp%3A%2F%2Fexodus.desync.com%3A6969"],"infoHash":"b20745d038a2d84dd1bec3ad3a81a57908e85223","infoHashBuffer":{"type":"Buffer","data":[178,7,69,208,56,162,216,77,209,190,195,173,58,129,165,121,8,232,82,35]},"announce":[],"urlList":[]}}